<?xml version="1.0" encoding="UTF-8" standalone="no"?>
<svg xmlns="http://www.w3.org/2000/svg" version="1.2" baseProfile="tiny" viewBox="0.00 0.00 1448.00 1448.00">
<g stroke-width="2.00" fill="none" stroke-linecap="butt">
<path stroke="#8cb6fe" vector-effect="non-scaling-stroke" d="
  M 375.9797 505.3356
  A 13.74 13.74 0.0 0 0 375.9797 485.9044
  L 370.6056 480.5303
  A 13.74 13.74 0.0 0 0 351.1744 480.5303
  L 345.8003 485.9044
  A 13.74 13.74 0.0 0 0 345.8003 505.3356
  L 351.1744 510.7097
  A 13.74 13.74 0.0 0 0 370.6056 510.7097
  L 375.9797 505.3356"
/>
<path stroke="#8cb6fe" vector-effect="non-scaling-stroke" d="
  M 883.52 663.18
  A 0.65 0.64 -74.4 0 1 884.04 664.11
  Q 871.91 688.40 851.64 706.42
  A 1.28 1.28 0.0 0 0 851.55 708.24
  L 873.71 732.24
  A 1.46 1.45 -42.6 0 0 875.76 732.32
  Q 907.11 703.74 922.46 664.15
  A 1.40 1.39 10.3 0 1 923.77 663.25
  L 1112.27 663.25
  A 1.59 1.59 0.0 0 0 1113.86 661.71
  Q 1115.13 623.81 1113.95 585.75
  C 1113.25 563.22 1099.51 551.12 1077.50 551.27
  Q 1042.37 551.51 1007.19 550.48
  A 0.97 0.97 0.0 0 1 1006.31 549.18
  Q 1017.40 518.22 1039.57 494.04
  A 0.92 0.91 -54.8 0 0 1039.33 492.62
  L 1013.39 478.60
  A 1.56 1.56 0.0 0 0 1011.52 478.88
  Q 982.91 507.89 974.55 547.82
  C 970.34 567.91 975.50 590.61 1000.53 590.69
  Q 1039.20 590.81 1077.43 590.73
  A 1.32 1.32 0.0 0 1 1078.75 592.05
  L 1078.75 622.00
  A 1.25 1.25 0.0 0 1 1077.50 623.25
  L 932.03 623.25
  A 1.78 1.78 0.0 0 1 930.25 621.47
  L 930.25 551.55
  Q 930.25 551.06 929.83 550.80
  Q 928.73 550.11 926.94 549.54
  Q 892.12 538.37 856.47 542.41
  C 825.17 545.97 811.60 561.27 809.55 592.51
  C 807.46 624.45 810.62 654.28 847.79 661.56
  Q 861.25 664.19 875.19 663.16
  Q 879.42 662.84 883.52 663.18"
/>
<path stroke="#8cb6fe" vector-effect="non-scaling-stroke" d="
  M 426.97 622.75
  A 0.48 0.47 88.8 0 1 426.50 623.25
  L 380.31 623.25
  A 0.75 0.74 -90.0 0 1 379.57 622.50
  L 379.19 546.26
  Q 379.18 544.84 377.76 544.82
  L 345.28 544.33
  A 1.49 1.48 0.2 0 0 343.77 545.82
  Q 344.23 606.14 343.30 666.05
  C 343.04 682.26 336.36 695.37 320.44 701.14
  A 1.21 1.21 0.0 0 0 319.73 702.73
  L 331.37 731.52
  A 1.78 1.78 0.0 0 0 333.64 732.52
  C 365.75 720.59 375.77 696.55 379.27 664.37
  A 1.26 1.25 3.0 0 1 380.52 663.25
  L 638.50 663.25
  A 1.50 1.50 0.0 0 0 640.00 661.75
  L 640.00 505.53
  A 0.78 0.78 0.0 0 0 639.22 504.75
  L 605.25 504.75
  Q 604.50 504.75 604.50 505.50
  L 604.50 622.72
  A 0.53 0.53 0.0 0 1 603.97 623.25
  L 553.23 623.25
  Q 552.70 623.25 552.62 622.72
  Q 552.30 620.55 552.38 619.00
  Q 553.28 601.60 552.85 584.19
  C 551.97 548.44 527.76 541.52 497.60 541.58
  Q 470.30 541.64 442.82 550.10
  Q 437.42 551.76 434.49 553.09
  Q 433.98 553.32 433.80 553.84
  C 427.21 571.99 424.97 592.77 426.25 611.43
  Q 426.64 617.18 426.97 622.75"
/>
<path stroke="#8cb6fe" vector-effect="non-scaling-stroke" d="
  M 737.79 623.13
  A 0.18 0.18 0.0 0 1 737.63 623.23
  L 665.26 623.47
  Q 664.75 623.47 664.75 623.99
  L 664.75 661.66
  Q 664.75 663.25 666.34 663.25
  L 779.78 663.25
  A 1.35 1.34 1.1 0 0 781.13 661.96
  C 781.80 646.87 781.93 632.38 778.21 617.50
  Q 772.17 593.40 762.03 570.69
  C 746.21 535.29 703.87 536.04 671.89 542.62
  C 670.61 542.88 668.92 542.69 667.75 543.90
  Q 667.37 544.29 667.50 544.82
  L 676.48 581.72
  Q 676.67 582.48 677.43 582.32
  C 696.15 578.37 719.91 575.23 730.52 595.28
  C 732.04 598.15 740.01 619.39 737.79 623.13"
/>
<path stroke="#8cb6fe" vector-effect="non-scaling-stroke" d="
  M 595.75 704.20
  A 1.41 1.41 0.0 0 0 597.52 705.56
  L 647.72 692.24
  A 1.41 1.41 0.0 0 0 648.77 690.87
  L 648.71 675.16
  A 1.41 1.41 0.0 0 0 646.94 673.80
  L 596.80 687.08
  A 1.41 1.41 0.0 0 0 595.75 688.45
  L 595.75 704.20"
/>
<path stroke="#8cb6fe" vector-effect="non-scaling-stroke" d="
  M 894.24 596.91
  C 894.25 593.61 894.73 587.19 894.41 582.30
  Q 894.37 581.73 893.80 581.69
  C 882.12 580.84 864.13 579.26 852.00 583.36
  C 846.55 585.20 846.77 592.74 846.67 597.32
  Q 846.41 609.37 846.54 621.75
  Q 846.55 623.02 847.81 623.13
  C 856.20 623.88 886.74 626.21 892.62 619.57
  Q 893.95 618.08 894.01 614.98
  Q 894.20 605.92 894.24 596.91"
/>
<path stroke="#8cb6fe" vector-effect="non-scaling-stroke" d="
  M 516.6472 585.1925
  A 3.52 3.52 0.0 0 0 513.0724 581.7282
  L 465.4183 582.4769
  A 3.52 3.52 0.0 0 0 461.9540 586.0517
  L 462.4928 620.3475
  A 3.52 3.52 0.0 0 0 466.0676 623.8118
  L 513.7217 623.0631
  A 3.52 3.52 0.0 0 0 517.1860 619.4883
  L 516.6472 585.1925"
/>
</g>
<path fill="#186dfc" d="
  M 1210.56 721.18
  A 25.32 25.32 0.0 0 1 1185.24 746.50
  L 256.34 746.50
  A 25.32 25.32 0.0 0 1 231.02 721.18
  L 231.02 462.58
  A 25.32 25.32 0.0 0 1 256.34 437.26
  L 1185.24 437.26
  A 25.32 25.32 0.0 0 1 1210.56 462.58
  L 1210.56 721.18
  Z
  M 375.9797 505.3356
  A 13.74 13.74 0.0 0 0 375.9797 485.9044
  L 370.6056 480.5303
  A 13.74 13.74 0.0 0 0 351.1744 480.5303
  L 345.8003 485.9044
  A 13.74 13.74 0.0 0 0 345.8003 505.3356
  L 351.1744 510.7097
  A 13.74 13.74 0.0 0 0 370.6056 510.7097
  L 375.9797 505.3356
  Z
  M 883.52 663.18
  A 0.65 0.64 -74.4 0 1 884.04 664.11
  Q 871.91 688.40 851.64 706.42
  A 1.28 1.28 0.0 0 0 851.55 708.24
  L 873.71 732.24
  A 1.46 1.45 -42.6 0 0 875.76 732.32
  Q 907.11 703.74 922.46 664.15
  A 1.40 1.39 10.3 0 1 923.77 663.25
  L 1112.27 663.25
  A 1.59 1.59 0.0 0 0 1113.86 661.71
  Q 1115.13 623.81 1113.95 585.75
  C 1113.25 563.22 1099.51 551.12 1077.50 551.27
  Q 1042.37 551.51 1007.19 550.48
  A 0.97 0.97 0.0 0 1 1006.31 549.18
  Q 1017.40 518.22 1039.57 494.04
  A 0.92 0.91 -54.8 0 0 1039.33 492.62
  L 1013.39 478.60
  A 1.56 1.56 0.0 0 0 1011.52 478.88
  Q 982.91 507.89 974.55 547.82
  C 970.34 567.91 975.50 590.61 1000.53 590.69
  Q 1039.20 590.81 1077.43 590.73
  A 1.32 1.32 0.0 0 1 1078.75 592.05
  L 1078.75 622.00
  A 1.25 1.25 0.0 0 1 1077.50 623.25
  L 932.03 623.25
  A 1.78 1.78 0.0 0 1 930.25 621.47
  L 930.25 551.55
  Q 930.25 551.06 929.83 550.80
  Q 928.73 550.11 926.94 549.54
  Q 892.12 538.37 856.47 542.41
  C 825.17 545.97 811.60 561.27 809.55 592.51
  C 807.46 624.45 810.62 654.28 847.79 661.56
  Q 861.25 664.19 875.19 663.16
  Q 879.42 662.84 883.52 663.18
  Z
  M 426.97 622.75
  A 0.48 0.47 88.8 0 1 426.50 623.25
  L 380.31 623.25
  A 0.75 0.74 -90.0 0 1 379.57 622.50
  L 379.19 546.26
  Q 379.18 544.84 377.76 544.82
  L 345.28 544.33
  A 1.49 1.48 0.2 0 0 343.77 545.82
  Q 344.23 606.14 343.30 666.05
  C 343.04 682.26 336.36 695.37 320.44 701.14
  A 1.21 1.21 0.0 0 0 319.73 702.73
  L 331.37 731.52
  A 1.78 1.78 0.0 0 0 333.64 732.52
  C 365.75 720.59 375.77 696.55 379.27 664.37
  A 1.26 1.25 3.0 0 1 380.52 663.25
  L 638.50 663.25
  A 1.50 1.50 0.0 0 0 640.00 661.75
  L 640.00 505.53
  A 0.78 0.78 0.0 0 0 639.22 504.75
  L 605.25 504.75
  Q 604.50 504.75 604.50 505.50
  L 604.50 622.72
  A 0.53 0.53 0.0 0 1 603.97 623.25
  L 553.23 623.25
  Q 552.70 623.25 552.62 622.72
  Q 552.30 620.55 552.38 619.00
  Q 553.28 601.60 552.85 584.19
  C 551.97 548.44 527.76 541.52 497.60 541.58
  Q 470.30 541.64 442.82 550.10
  Q 437.42 551.76 434.49 553.09
  Q 433.98 553.32 433.80 553.84
  C 427.21 571.99 424.97 592.77 426.25 611.43
  Q 426.64 617.18 426.97 622.75
  Z
  M 737.79 623.13
  A 0.18 0.18 0.0 0 1 737.63 623.23
  L 665.26 623.47
  Q 664.75 623.47 664.75 623.99
  L 664.75 661.66
  Q 664.75 663.25 666.34 663.25
  L 779.78 663.25
  A 1.35 1.34 1.1 0 0 781.13 661.96
  C 781.80 646.87 781.93 632.38 778.21 617.50
  Q 772.17 593.40 762.03 570.69
  C 746.21 535.29 703.87 536.04 671.89 542.62
  C 670.61 542.88 668.92 542.69 667.75 543.90
  Q 667.37 544.29 667.50 544.82
  L 676.48 581.72
  Q 676.67 582.48 677.43 582.32
  C 696.15 578.37 719.91 575.23 730.52 595.28
  C 732.04 598.15 740.01 619.39 737.79 623.13
  Z
  M 595.75 704.20
  A 1.41 1.41 0.0 0 0 597.52 705.56
  L 647.72 692.24
  A 1.41 1.41 0.0 0 0 648.77 690.87
  L 648.71 675.16
  A 1.41 1.41 0.0 0 0 646.94 673.80
  L 596.80 687.08
  A 1.41 1.41 0.0 0 0 595.75 688.45
  L 595.75 704.20
  Z"
/>
<rect fill="#ffffff" x="-17.54" y="-17.54" transform="translate(360.89,495.62) rotate(45.0)" width="35.08" height="35.08" rx="13.74"/>
<path fill="#ffffff" d="
  M 883.52 663.18
  Q 879.42 662.84 875.19 663.16
  Q 861.25 664.19 847.79 661.56
  C 810.62 654.28 807.46 624.45 809.55 592.51
  C 811.60 561.27 825.17 545.97 856.47 542.41
  Q 892.12 538.37 926.94 549.54
  Q 928.73 550.11 929.83 550.80
  Q 930.25 551.06 930.25 551.55
  L 930.25 621.47
  A 1.78 1.78 0.0 0 0 932.03 623.25
  L 1077.50 623.25
  A 1.25 1.25 0.0 0 0 1078.75 622.00
  L 1078.75 592.05
  A 1.32 1.32 0.0 0 0 1077.43 590.73
  Q 1039.20 590.81 1000.53 590.69
  C 975.50 590.61 970.34 567.91 974.55 547.82
  Q 982.91 507.89 1011.52 478.88
  A 1.56 1.56 0.0 0 1 1013.39 478.60
  L 1039.33 492.62
  A 0.92 0.91 -54.8 0 1 1039.57 494.04
  Q 1017.40 518.22 1006.31 549.18
  A 0.97 0.97 0.0 0 0 1007.19 550.48
  Q 1042.37 551.51 1077.50 551.27
  C 1099.51 551.12 1113.25 563.22 1113.95 585.75
  Q 1115.13 623.81 1113.86 661.71
  A 1.59 1.59 0.0 0 1 1112.27 663.25
  L 923.77 663.25
  A 1.40 1.39 10.3 0 0 922.46 664.15
  Q 907.11 703.74 875.76 732.32
  A 1.46 1.45 -42.6 0 1 873.71 732.24
  L 851.55 708.24
  A 1.28 1.28 0.0 0 1 851.64 706.42
  Q 871.91 688.40 884.04 664.11
  A 0.65 0.64 -74.4 0 0 883.52 663.18
  Z
  M 894.24 596.91
  C 894.25 593.61 894.73 587.19 894.41 582.30
  Q 894.37 581.73 893.80 581.69
  C 882.12 580.84 864.13 579.26 852.00 583.36
  C 846.55 585.20 846.77 592.74 846.67 597.32
  Q 846.41 609.37 846.54 621.75
  Q 846.55 623.02 847.81 623.13
  C 856.20 623.88 886.74 626.21 892.62 619.57
  Q 893.95 618.08 894.01 614.98
  Q 894.20 605.92 894.24 596.91
  Z"
/>
<path fill="#ffffff" d="
  M 426.97 622.75
  Q 426.64 617.18 426.25 611.43
  C 424.97 592.77 427.21 571.99 433.80 553.84
  Q 433.98 553.32 434.49 553.09
  Q 437.42 551.76 442.82 550.10
  Q 470.30 541.64 497.60 541.58
  C 527.76 541.52 551.97 548.44 552.85 584.19
  Q 553.28 601.60 552.38 619.00
  Q 552.30 620.55 552.62 622.72
  Q 552.70 623.25 553.23 623.25
  L 603.97 623.25
  A 0.53 0.53 0.0 0 0 604.50 622.72
  L 604.50 505.50
  Q 604.50 504.75 605.25 504.75
  L 639.22 504.75
  A 0.78 0.78 0.0 0 1 640.00 505.53
  L 640.00 661.75
  A 1.50 1.50 0.0 0 1 638.50 663.25
  L 380.52 663.25
  A 1.26 1.25 3.0 0 0 379.27 664.37
  C 375.77 696.55 365.75 720.59 333.64 732.52
  A 1.78 1.78 0.0 0 1 331.37 731.52
  L 319.73 702.73
  A 1.21 1.21 0.0 0 1 320.44 701.14
  C 336.36 695.37 343.04 682.26 343.30 666.05
  Q 344.23 606.14 343.77 545.82
  A 1.49 1.48 0.2 0 1 345.28 544.33
  L 377.76 544.82
  Q 379.18 544.84 379.19 546.26
  L 379.57 622.50
  A 0.75 0.74 -90.0 0 0 380.31 623.25
  L 426.50 623.25
  A 0.48 0.47 88.8 0 0 426.97 622.75
  Z
  M 516.6472 585.1925
  A 3.52 3.52 0.0 0 0 513.0724 581.7282
  L 465.4183 582.4769
  A 3.52 3.52 0.0 0 0 461.9540 586.0517
  L 462.4928 620.3475
  A 3.52 3.52 0.0 0 0 466.0676 623.8118
  L 513.7217 623.0631
  A 3.52 3.52 0.0 0 0 517.1860 619.4883
  L 516.6472 585.1925
  Z"
/>
<path fill="#ffffff" d="
  M 737.79 623.13
  C 740.01 619.39 732.04 598.15 730.52 595.28
  C 719.91 575.23 696.15 578.37 677.43 582.32
  Q 676.67 582.48 676.48 581.72
  L 667.50 544.82
  Q 667.37 544.29 667.75 543.90
  C 668.92 542.69 670.61 542.88 671.89 542.62
  C 703.87 536.04 746.21 535.29 762.03 570.69
  Q 772.17 593.40 778.21 617.50
  C 781.93 632.38 781.80 646.87 781.13 661.96
  A 1.35 1.34 1.1 0 1 779.78 663.25
  L 666.34 663.25
  Q 664.75 663.25 664.75 661.66
  L 664.75 623.99
  Q 664.75 623.47 665.26 623.47
  L 737.63 623.23
  A 0.18 0.18 0.0 0 0 737.79 623.13
  Z"
/>
<path fill="#186dfc" d="
  M 894.24 596.91
  Q 894.20 605.92 894.01 614.98
  Q 893.95 618.08 892.62 619.57
  C 886.74 626.21 856.20 623.88 847.81 623.13
  Q 846.55 623.02 846.54 621.75
  Q 846.41 609.37 846.67 597.32
  C 846.77 592.74 846.55 585.20 852.00 583.36
  C 864.13 579.26 882.12 580.84 893.80 581.69
  Q 894.37 581.73 894.41 582.30
  C 894.73 587.19 894.25 593.61 894.24 596.91
  Z"
/>
<rect fill="#186dfc" x="-27.35" y="-20.67" transform="translate(489.57,602.77) rotate(-0.9)" width="54.70" height="41.34" rx="3.52"/>
<path fill="#ffffff" d="
  M 595.75 704.20
  L 595.75 688.45
  A 1.41 1.41 0.0 0 1 596.80 687.08
  L 646.94 673.80
  A 1.41 1.41 0.0 0 1 648.71 675.16
  L 648.77 690.87
  A 1.41 1.41 0.0 0 1 647.72 692.24
  L 597.52 705.56
  A 1.41 1.41 0.0 0 1 595.75 704.20
  Z"
/>
<circle fill="#186dfc" cx="832.96" cy="827.65" r="14.05"/>
<circle fill="#186dfc" cx="456.38" cy="827.62" r="13.96"/>
<circle fill="#186dfc" cx="491.11" cy="827.66" r="14.03"/>
<circle fill="#186dfc" cx="867.67" cy="827.71" r="14.00"/>
<path fill="#186dfc" d="
  M 326.39 887.29
  Q 351.75 860.15 388.01 863.30
  Q 400.69 864.41 406.44 867.42
  C 424.01 876.65 420.60 907.39 419.73 923.60
  A 1.25 1.24 -88.2 0 0 420.96 924.92
  L 458.46 925.26
  A 1.28 1.28 0.0 0 0 459.75 923.98
  L 459.75 866.78
  A 1.53 1.53 0.0 0 1 461.28 865.25
  L 486.22 865.25
  A 1.03 1.03 0.0 0 1 487.25 866.28
  L 487.25 923.88
  A 0.95 0.95 0.0 0 0 488.19 924.83
  L 526.18 925.32
  A 0.81 0.81 0.0 0 0 527.00 924.51
  L 527.00 835.05
  A 1.04 1.04 0.0 0 1 528.04 834.01
  Q 538.93 833.99 549.98 834.00
  C 552.90 834.01 554.10 834.71 554.12 837.75
  Q 554.37 894.56 554.21 951.37
  C 554.21 953.94 553.10 955.74 550.44 955.74
  Q 400.34 955.76 250.15 955.75
  Q 249.50 955.75 249.26 956.36
  Q 237.82 985.97 214.88 1007.95
  Q 214.50 1008.32 213.98 1008.38
  C 211.05 1008.69 198.47 993.91 196.04 991.23
  A 1.37 1.35 43.1 0 1 195.97 989.47
  L 220.26 958.72
  A 1.44 1.44 0.0 0 0 219.18 956.39
  C 193.93 955.57 170.02 957.72 164.04 926.05
  Q 160.94 909.63 164.03 893.22
  C 171.72 852.34 225.60 860.32 252.94 868.59
  C 254.05 868.93 254.76 871.05 254.75 872.32
  Q 254.73 897.25 254.79 922.19
  C 254.80 924.09 255.73 924.99 257.66 924.98
  Q 277.22 924.94 296.83 925.34
  A 0.66 0.66 0.0 0 0 297.50 924.68
  L 297.50 835.75
  A 1.72 1.72 0.0 0 1 299.21 834.03
  Q 310.66 833.94 322.01 834.03
  C 324.59 834.06 325.08 836.48 325.01 838.72
  C 324.52 854.73 322.86 871.76 325.37 886.98
  A 0.60 0.59 -28.0 0 0 326.39 887.29
  Z
  M 227.8215 896.8090
  A 3.78 3.78 0.0 0 0 224.0021 893.0688
  L 194.9637 893.3729
  A 3.78 3.78 0.0 0 0 191.2235 897.1923
  L 191.4785 921.5510
  A 3.78 3.78 0.0 0 0 195.2979 925.2912
  L 224.3363 924.9871
  A 3.78 3.78 0.0 0 0 228.0765 921.1677
  L 227.8215 896.8090
  Z
  M 375.75 894.00
  C 352.91 893.59 334.19 897.40 326.38 921.31
  C 325.79 923.10 326.46 925.25 328.50 925.25
  Q 359.72 925.26 391.03 925.25
  A 1.28 1.27 -89.1 0 0 392.30 924.01
  Q 392.70 911.22 392.47 898.44
  Q 392.41 895.24 390.19 894.84
  Q 386.54 894.19 375.75 894.00
  Z"
/>
<rect fill="#186dfc" x="583.50" y="834.00" width="27.50" height="121.74" rx="3.32"/>
<path fill="#186dfc" d="
  M 1381.94 924.78
  C 1381.91 923.26 1382.23 921.70 1382.24 920.27
  Q 1382.27 877.61 1382.24 834.85
  A 0.85 0.85 0.0 0 1 1383.09 834.00
  L 1407.97 834.00
  A 1.53 1.53 0.0 0 1 1409.50 835.53
  L 1409.50 954.25
  A 1.50 1.50 0.0 0 1 1408.00 955.75
  L 1209.22 955.75
  A 2.33 2.33 0.0 0 0 1206.89 957.94
  C 1205.47 980.85 1197.01 998.55 1174.79 1007.81
  Q 1170.87 1009.44 1169.33 1005.26
  Q 1165.76 995.60 1162.22 985.84
  A 1.36 1.36 0.0 0 1 1163.01 984.11
  C 1178.13 978.29 1179.88 967.24 1180.05 951.62
  Q 1180.51 909.19 1179.88 866.62
  A 1.35 1.35 0.0 0 1 1181.23 865.25
  L 1205.99 865.25
  A 1.74 1.74 0.0 0 1 1207.73 866.99
  L 1207.76 923.53
  A 1.45 1.44 89.8 0 0 1209.21 924.98
  Q 1227.16 924.96 1245.19 925.30
  Q 1247.34 925.34 1247.36 922.69
  Q 1247.52 894.73 1247.51 866.74
  A 1.49 1.49 0.0 0 1 1249.00 865.25
  L 1273.94 865.25
  A 1.06 1.06 0.0 0 1 1275.00 866.31
  L 1275.00 923.76
  A 1.09 1.09 0.0 0 0 1276.08 924.85
  L 1313.90 925.30
  A 0.84 0.83 0.3 0 0 1314.75 924.47
  L 1314.75 835.27
  A 1.25 1.25 0.0 0 1 1316.00 834.02
  Q 1327.75 833.97 1339.50 834.01
  C 1341.36 834.02 1342.25 835.30 1342.25 837.13
  Q 1342.25 880.31 1342.25 923.59
  A 1.27 1.26 0.5 0 0 1343.50 924.85
  L 1381.41 925.30
  A 0.52 0.52 0.0 0 0 1381.94 924.78
  Z"
/>
<path fill="#186dfc" d="
  M 694.23 956.69
  A 1.32 1.32 0.0 0 0 693.08 956.02
  C 666.73 956.05 643.80 956.43 638.58 924.69
  C 636.32 910.94 636.04 891.81 643.28 880.12
  C 658.87 854.95 702.46 861.64 725.76 868.03
  C 729.06 868.94 730.44 870.51 730.47 874.13
  C 730.63 901.72 733.11 931.95 723.33 957.98
  Q 712.34 987.20 688.53 1008.31
  A 1.18 1.17 -42.2 0 1 686.89 1008.23
  L 670.12 990.24
  A 0.79 0.79 0.0 0 1 670.14 989.14
  C 673.70 985.52 696.40 960.51 694.23 956.69
  Z
  M 702.8109 897.6738
  A 4.13 4.13 0.0 0 0 698.6953 893.5294
  L 670.4555 893.4308
  A 4.13 4.13 0.0 0 0 666.3111 897.5464
  L 666.2291 921.0262
  A 4.13 4.13 0.0 0 0 670.3447 925.1706
  L 698.5845 925.2692
  A 4.13 4.13 0.0 0 0 702.7289 921.1536
  L 702.8109 897.6738
  Z"
/>
<path fill="#186dfc" d="
  M 1048.01 924.23
  Q 1045.43 904.21 1049.71 884.16
  C 1051.66 875.04 1053.52 870.08 1063.47 867.88
  C 1084.00 863.35 1120.54 854.90 1136.59 873.83
  Q 1143.21 881.64 1143.68 892.58
  Q 1145.02 923.69 1143.31 954.44
  A 1.38 1.38 0.0 0 1 1141.93 955.75
  Q 1074.71 955.75 1007.75 955.75
  C 998.96 955.75 993.95 944.90 991.23 937.75
  C 989.57 933.41 983.61 940.46 981.93 941.92
  C 970.80 951.54 957.04 955.19 942.38 955.40
  Q 885.17 956.21 827.97 955.44
  C 825.42 955.40 822.76 954.42 820.32 953.79
  C 805.26 949.87 799.78 937.90 798.79 923.57
  C 796.76 894.14 795.85 867.40 833.82 865.90
  Q 865.57 864.65 892.26 865.50
  C 894.44 865.56 894.04 867.34 894.03 868.91
  Q 893.83 896.58 894.26 924.28
  A 0.89 0.89 0.0 0 0 895.16 925.16
  Q 919.37 924.97 943.49 925.28
  Q 962.28 925.52 973.33 909.60
  C 977.05 904.24 975.29 901.23 969.93 898.52
  C 956.89 891.91 939.69 892.36 926.00 894.28
  C 923.72 894.61 922.82 893.82 922.53 891.56
  Q 920.93 879.25 919.35 866.16
  A 1.97 1.97 0.0 0 1 921.09 863.96
  C 938.87 861.93 961.34 860.45 978.07 868.82
  C 998.38 878.97 1007.56 903.14 1013.80 923.43
  A 1.53 1.52 -7.7 0 0 1015.22 924.51
  L 1047.03 925.31
  Q 1048.15 925.33 1048.01 924.23
  Z
  M 1116.3093 896.6220
  A 3.11 3.11 0.0 0 0 1113.1509 893.5612
  L 1077.4153 894.1226
  A 3.11 3.11 0.0 0 0 1074.3545 897.2811
  L 1074.7507 922.4980
  A 3.11 3.11 0.0 0 0 1077.9091 925.5588
  L 1113.6447 924.9974
  A 3.11 3.11 0.0 0 0 1116.7055 921.8389
  L 1116.3093 896.6220
  Z
  M 866.8252 899.5505
  A 3.78 3.78 0.0 0 0 863.0783 895.7377
  L 831.6595 895.4635
  A 3.78 3.78 0.0 0 0 827.8466 899.2103
  L 827.6548 921.1895
  A 3.78 3.78 0.0 0 0 831.4017 925.0023
  L 862.8205 925.2765
  A 3.78 3.78 0.0 0 0 866.6334 921.5297
  L 866.8252 899.5505
  Z"
/>
<path fill="#186dfc" d="
  M 69.64 956.38
  C 68.51 981.80 59.30 998.41 35.47 1008.68
  Q 33.98 1009.32 33.37 1007.82
  L 24.53 986.20
  A 0.94 0.94 0.0 0 1 25.01 985.00
  C 40.91 977.72 42.56 966.42 42.65 949.35
  Q 42.87 907.70 42.71 866.11
  A 0.85 0.85 0.0 0 1 43.56 865.25
  L 68.72 865.25
  A 1.53 1.53 0.0 0 1 70.25 866.78
  L 70.25 923.79
  A 1.05 1.05 0.0 0 0 71.29 924.84
  L 108.41 925.29
  A 0.83 0.83 0.0 0 0 109.25 924.46
  L 109.25 867.00
  A 1.75 1.75 0.0 0 1 111.00 865.25
  L 135.20 865.25
  A 0.80 0.80 0.0 0 1 136.00 866.05
  Q 135.92 909.56 136.33 953.25
  C 136.35 955.32 134.60 955.73 132.79 955.74
  Q 101.60 955.76 70.31 955.74
  Q 69.67 955.74 69.64 956.38
  Z"
/>
<circle fill="#186dfc" cx="128.87" cy="984.15" r="14.12"/>
<circle fill="#186dfc" cx="94.09" cy="984.16" r="14.03"/>
<circle fill="#186dfc" cx="967.63" cy="985.83" r="13.97"/>
<circle fill="#186dfc" cx="1261.30" cy="985.93" r="13.99"/>
</svg>
