<?xml version="1.0" encoding="UTF-8" standalone="no"?>
<!DOCTYPE svg PUBLIC "-//W3C//DTD SVG 1.1//EN" "http://www.w3.org/Graphics/SVG/1.1/DTD/svg11.dtd">
<svg xmlns="http://www.w3.org/2000/svg" version="1.1" viewBox="0 0 500 500">
<g stroke-width="2.00" fill="none" stroke-linecap="butt">
<path stroke="#8cb6fe" vector-effect="non-scaling-stroke" d="
  M 189.54 151.15
  L 189.50 322.55
  A 0.45 0.45 0.0 0 0 189.95 323.00
  L 289.20 323.00
  A 0.64 0.64 0.0 0 1 289.84 323.64
  L 289.96 357.09"
/>
<path stroke="#8cb6fe" vector-effect="non-scaling-stroke" d="
  M 323.36 250.74
  A 0.43 0.43 0.0 0 1 323.34 251.58
  C 311.83 253.65 306.90 257.89 307.02 270.05
  Q 307.11 279.31 307.10 288.57
  Q 307.08 298.03 298.03 298.76
  Q 296.14 298.91 295.01 299.26
  A 0.72 0.71 81.9 0 0 294.50 299.95
  L 294.50 314.71
  A 0.51 0.51 0.0 0 0 295.00 315.22
  C 307.11 315.34 325.42 314.42 325.64 298.05
  Q 325.80 285.83 325.86 273.53
  C 325.91 261.82 334.23 260.07 343.65 259.62
  A 0.62 0.62 0.0 0 0 344.25 259.00
  L 344.25 243.24
  A 0.63 0.63 0.0 0 0 343.64 242.61
  C 333.85 242.33 326.04 240.47 325.86 228.89
  Q 325.67 216.47 325.70 204.07
  C 325.73 187.91 306.56 186.78 295.00 187.03
  A 0.49 0.48 -0.6 0 0 294.52 187.51
  L 294.46 202.81
  A 0.56 0.55 86.9 0 0 295.08 203.37
  Q 300.44 202.69 304.00 205.78
  C 307.25 208.60 306.97 213.11 306.99 217.26
  C 307.06 233.45 303.04 245.98 323.36 250.74"
/>
</g>
<path fill="#ffffff" d="
  M 189.54 151.15
  L 189.50 322.55
  A 0.45 0.45 0.0 0 0 189.95 323.00
  L 289.20 323.00
  A 0.64 0.64 0.0 0 1 289.84 323.64
  L 289.96 357.09
  L 289.69 365.53
  A 0.48 0.48 0.0 0 1 289.21 366.00
  L 137.70 366.00
  A 0.45 0.45 0.0 0 1 137.25 365.55
  Q 137.25 248.98 137.25 132.33
  C 137.25 129.03 136.67 124.07 137.45 119.73
  A 0.59 0.59 0.0 0 1 138.03 119.25
  L 188.77 119.25
  A 0.82 0.82 0.0 0 1 189.59 120.07
  L 189.54 151.15
  Z"
/>
<path fill="#186dfc" d="
  M 289.96 357.09
  L 289.84 323.64
  A 0.64 0.64 0.0 0 0 289.20 323.00
  L 189.95 323.00
  A 0.45 0.45 0.0 0 1 189.50 322.55
  L 189.54 151.15
  L 357.45 151.00
  A 0.55 0.55 0.0 0 1 358.00 151.55
  L 358.00 356.23
  A 0.56 0.55 85.8 0 1 357.53 356.78
  Q 355.82 357.04 351.50 357.02
  Q 320.83 356.93 289.96 357.09
  Z
  M 323.36 250.74
  A 0.43 0.43 0.0 0 1 323.34 251.58
  C 311.83 253.65 306.90 257.89 307.02 270.05
  Q 307.11 279.31 307.10 288.57
  Q 307.08 298.03 298.03 298.76
  Q 296.14 298.91 295.01 299.26
  A 0.72 0.71 81.9 0 0 294.50 299.95
  L 294.50 314.71
  A 0.51 0.51 0.0 0 0 295.00 315.22
  C 307.11 315.34 325.42 314.42 325.64 298.05
  Q 325.80 285.83 325.86 273.53
  C 325.91 261.82 334.23 260.07 343.65 259.62
  A 0.62 0.62 0.0 0 0 344.25 259.00
  L 344.25 243.24
  A 0.63 0.63 0.0 0 0 343.64 242.61
  C 333.85 242.33 326.04 240.47 325.86 228.89
  Q 325.67 216.47 325.70 204.07
  C 325.73 187.91 306.56 186.78 295.00 187.03
  A 0.49 0.48 -0.6 0 0 294.52 187.51
  L 294.46 202.81
  A 0.56 0.55 86.9 0 0 295.08 203.37
  Q 300.44 202.69 304.00 205.78
  C 307.25 208.60 306.97 213.11 306.99 217.26
  C 307.06 233.45 303.04 245.98 323.36 250.74
  Z"
/>
<path fill="#ffffff" d="
  M 323.36 250.74
  C 303.04 245.98 307.06 233.45 306.99 217.26
  C 306.97 213.11 307.25 208.60 304.00 205.78
  Q 300.44 202.69 295.08 203.37
  A 0.56 0.55 86.9 0 1 294.46 202.81
  L 294.52 187.51
  A 0.49 0.48 -0.6 0 1 295.00 187.03
  C 306.56 186.78 325.73 187.91 325.70 204.07
  Q 325.67 216.47 325.86 228.89
  C 326.04 240.47 333.85 242.33 343.64 242.61
  A 0.63 0.63 0.0 0 1 344.25 243.24
  L 344.25 259.00
  A 0.62 0.62 0.0 0 1 343.65 259.62
  C 334.23 260.07 325.91 261.82 325.86 273.53
  Q 325.80 285.83 325.64 298.05
  C 325.42 314.42 307.11 315.34 295.00 315.22
  A 0.51 0.51 0.0 0 1 294.50 314.71
  L 294.50 299.95
  A 0.72 0.71 81.9 0 1 295.01 299.26
  Q 296.14 298.91 298.03 298.76
  Q 307.08 298.03 307.10 288.57
  Q 307.11 279.31 307.02 270.05
  C 306.90 257.89 311.83 253.65 323.34 251.58
  A 0.43 0.43 0.0 0 0 323.36 250.74
  Z"
/>
</svg>
